<?xml version="1.0" standalone="no"?>
<!DOCTYPE svg PUBLIC "-//W3C//DTD SVG 20010904//EN"
 "http://www.w3.org/TR/2001/REC-SVG-20010904/DTD/svg10.dtd">
<svg version="1.0" xmlns="http://www.w3.org/2000/svg"
 width="512.000000pt" height="512.000000pt" viewBox="0 0 512.000000 512.000000"
 preserveAspectRatio="xMidYMid meet">

<g transform="translate(0.000000,512.000000) scale(0.100000,-0.100000)"
fill="#000000" stroke="none">
<path d="M2511 5106 c-47 -26 -50 -46 -51 -284 0 -174 3 -229 14 -251 35 -66
137 -66 172 0 19 37 20 454 2 494 -22 48 -88 68 -137 41z"/>
<path d="M1421 4796 c-47 -26 -63 -84 -37 -134 8 -15 84 -96 169 -179 150
-148 156 -153 197 -153 59 0 100 41 100 100 0 41 -5 47 -152 197 -84 85 -165
161 -180 169 -33 17 -66 17 -97 0z"/>
<path d="M3595 4791 c-16 -10 -96 -86 -177 -169 -143 -145 -148 -151 -148
-192 0 -59 41 -100 100 -100 41 0 47 5 197 153 153 151 183 187 183 226 0 53
-49 101 -102 101 -13 0 -36 -8 -53 -19z"/>
<path d="M1812 4105 c-43 -13 -102 -52 -135 -90 -34 -37 -65 -119 -128 -337
l-63 -218 -112 0 -112 0 -4 88 c-7 142 -63 233 -177 286 -42 19 -64 21 -251
21 -187 0 -209 -2 -251 -21 -114 -53 -170 -144 -177 -285 l-4 -87 -54 -7 c-74
-9 -182 -65 -234 -121 -23 -25 -56 -75 -73 -112 l-32 -67 0 -1426 0 -1425 37
-76 c45 -91 103 -147 196 -191 l67 -32 2255 0 2255 0 67 32 c93 44 151 100
196 191 l37 76 0 1425 0 1426 -32 67 c-44 93 -100 151 -191 196 l-76 37 -591
3 -591 3 -63 217 c-35 119 -73 240 -86 267 -27 61 -82 117 -144 147 l-46 23
-720 2 c-581 2 -728 -1 -763 -12z m1460 -205 c14 -10 30 -32 36 -47 16 -39
112 -368 112 -382 0 -8 -227 -11 -860 -11 -633 0 -860 3 -860 11 0 14 96 343
112 382 6 15 22 37 36 47 24 19 44 20 712 20 668 0 688 -1 712 -20z m-2267
-252 c38 -17 55 -58 55 -128 l0 -60 -230 0 -230 0 0 63 c1 68 15 103 51 123
32 18 317 19 354 2z m3818 -417 c21 -13 50 -42 65 -64 l27 -40 3 -234 3 -233
-712 0 -711 0 -66 62 c-87 80 -239 180 -353 229 -466 202 -1023 111 -1389
-228 l-68 -63 -711 0 -711 0 0 213 c0 118 5 229 11 250 13 47 77 113 121 126
21 6 867 9 2243 8 l2210 -2 38 -24z m-2038 -395 c212 -45 397 -147 551 -300
157 -157 262 -354 305 -571 18 -90 18 -320 0 -410 -43 -217 -145 -408 -301
-566 -160 -161 -355 -266 -575 -310 -99 -20 -330 -18 -427 4 -429 93 -756 419
-855 849 -22 99 -23 355 0 453 105 459 460 792 923 865 81 12 294 5 379 -14z
m-1364 -448 c-255 -465 -199 -1054 138 -1455 l61 -73 -710 0 -710 0 0 800 0
800 631 0 630 0 -40 -72z m3499 -728 l0 -800 -710 0 -710 0 61 73 c225 267
334 640 289 987 -21 160 -89 367 -159 480 -17 28 -31 52 -31 55 0 3 284 5 630
5 l630 0 0 -800z m-3003 -1029 c73 -45 207 -100 311 -127 316 -82 633 -47 928
102 l106 54 830 0 830 0 -4 -163 c-3 -158 -4 -165 -30 -204 -15 -22 -44 -51
-65 -64 l-38 -24 -2225 0 -2225 0 -38 24 c-21 13 -50 42 -65 64 -26 39 -27 46
-30 204 l-4 163 836 0 836 0 47 -29z"/>
<path d="M451 3046 c-47 -26 -63 -84 -37 -135 22 -42 55 -51 186 -51 131 0
164 9 186 51 27 52 8 115 -41 137 -37 17 -263 15 -294 -2z"/>
<path d="M3711 3046 c-87 -48 -50 -186 49 -186 51 0 100 49 100 99 0 75 -83
124 -149 87z"/>
<path d="M4111 3046 c-47 -26 -63 -84 -37 -135 25 -47 47 -51 317 -51 272 0
294 4 317 55 23 51 7 107 -39 131 -39 20 -522 20 -558 0z"/>
<path d="M2105 2346 c-102 -25 -212 -104 -268 -192 -53 -86 -71 -151 -71 -269
0 -93 4 -120 25 -175 34 -90 89 -170 189 -274 105 -109 522 -464 556 -472 13
-3 35 -3 48 0 37 9 450 361 557 475 99 104 144 170 187 273 23 55 26 77 26
173 0 118 -18 183 -71 269 -79 124 -230 206 -381 206 -105 0 -227 -56 -302
-136 l-38 -42 -55 53 c-112 109 -253 147 -402 111z m218 -220 c55 -31 89 -76
131 -169 34 -73 60 -97 106 -97 46 0 72 24 106 97 42 93 76 138 130 169 203
119 428 -104 345 -340 -27 -77 -71 -138 -175 -241 -122 -120 -393 -347 -410
-343 -22 5 -387 320 -447 386 -136 148 -173 258 -133 391 19 67 88 143 147
165 60 22 146 14 200 -18z"/>
</g>
</svg>
