<?xml version="1.0" standalone="no"?>
<!DOCTYPE svg PUBLIC "-//W3C//DTD SVG 20010904//EN"
 "http://www.w3.org/TR/2001/REC-SVG-20010904/DTD/svg10.dtd">
<svg version="1.0" xmlns="http://www.w3.org/2000/svg"
 width="512.000000pt" height="512.000000pt" viewBox="0 0 512.000000 512.000000"
 preserveAspectRatio="xMidYMid meet">

<g transform="translate(0.000000,512.000000) scale(0.100000,-0.100000)"
fill="#000000" stroke="none">
<path d="M559 5106 c-68 -24 -119 -76 -144 -147 -13 -36 -15 -325 -15 -2238 0
-2453 -6 -2253 71 -2330 47 -47 111 -71 191 -71 l58 0 0 -53 c0 -110 48 -198
133 -244 30 -17 130 -18 1707 -18 1577 0 1677 1 1707 18 54 29 102 87 118 140
13 44 15 240 15 1454 l0 1404 -25 24 c-31 32 -69 32 -100 0 l-25 -24 0 -1406
0 -1407 -29 -29 -29 -29 -1632 0 -1632 0 -29 29 -29 29 0 187 c0 184 0 186
-25 210 -31 32 -69 32 -100 0 -21 -20 -25 -34 -25 -80 l0 -55 -56 0 c-48 0
-59 4 -85 29 l-29 29 0 2192 0 2192 29 29 29 29 1632 0 1632 0 29 -29 c27 -27
29 -35 29 -105 0 -42 -3 -76 -7 -76 -5 0 -669 -113 -1478 -251 -1589 -271
-1538 -260 -1628 -338 -20 -18 -49 -58 -64 -89 l-28 -57 -3 -1575 c-2 -1113 1
-1583 9 -1601 10 -25 46 -49 73 -49 8 0 24 9 37 19 l24 19 5 1580 c5 1578 5
1581 26 1608 11 15 37 42 58 58 33 27 46 31 96 31 98 -1 131 -29 282 -240 71
-99 141 -193 156 -208 46 -49 100 -71 167 -70 56 0 150 38 1290 508 677 279
1241 507 1254 507 44 1 51 -24 51 -173 0 -123 2 -139 21 -163 27 -34 71 -35
104 -1 24 23 25 29 25 165 0 184 -10 221 -74 286 -60 59 -118 80 -196 70 l-50
-7 0 56 c0 89 -18 140 -66 194 -79 88 76 81 -1778 81 -1322 -1 -1648 -3 -1677
-14z m3080 -550 c-5 -6 -1934 -800 -1965 -810 -37 -12 -72 12 -121 80 -27 37
-92 127 -145 201 -59 81 -93 135 -85 138 6 2 453 79 992 170 539 92 1050 179
1135 195 159 28 197 33 189 26z"/>
<path d="M4385 4060 c-26 -13 -370 -350 -996 -977 -1068 -1070 -979 -969
-1139 -1294 -88 -178 -92 -188 -79 -215 8 -15 26 -35 41 -43 26 -15 33 -12
245 93 120 59 245 127 278 151 33 24 488 472 1012 997 1045 1047 992 987 964
1080 -16 52 -138 182 -196 209 -51 24 -81 24 -130 -1z m128 -312 l-63 -63 -60
60 -60 59 62 63 63 63 60 -60 60 -60 -62 -62z m-935 -935 l-768 -768 -60 60
-60 60 767 767 768 768 60 -60 60 -60 -767 -767z m-936 -820 l57 -56 -42 -33
c-37 -30 -225 -134 -241 -134 -3 0 16 44 43 98 48 96 104 182 118 182 4 0 33
-25 65 -57z"/>
<path d="M1980 3193 c-8 -3 -97 -87 -197 -186 l-183 -182 -104 104 c-90 89
-109 104 -137 104 -37 0 -79 -40 -79 -75 0 -14 49 -71 142 -165 129 -130 145
-143 177 -143 33 0 52 17 253 218 203 202 218 220 218 253 0 49 -47 87 -90 72z"/>
<path d="M2460 3113 c-33 -13 -50 -37 -50 -73 0 -70 2 -70 312 -70 263 0 276
1 293 20 25 28 23 76 -4 103 -21 21 -29 22 -279 24 -141 1 -264 -1 -272 -4z"/>
<path d="M2465 2793 c-36 -9 -55 -34 -55 -73 0 -61 19 -70 152 -70 130 0 148
8 148 72 0 58 -25 72 -133 74 -51 2 -101 0 -112 -3z"/>
<path d="M1783 2128 l-182 -182 -104 102 c-93 91 -108 102 -140 102 -39 0 -77
-36 -77 -73 0 -14 53 -74 149 -170 138 -139 151 -149 178 -143 18 5 102 81
246 224 194 194 217 220 217 249 0 43 -30 73 -73 73 -28 0 -53 -21 -214 -182z"/>
<path d="M3470 2210 c-25 -25 -26 -71 -1 -101 19 -23 24 -24 171 -24 l152 0
24 28 c29 34 30 56 3 91 l-20 26 -155 0 c-141 0 -156 -2 -174 -20z"/>
<path d="M3150 1890 c-27 -27 -26 -81 1 -106 20 -18 42 -19 325 -22 l305 -3
29 30 c35 35 38 59 9 95 l-20 26 -315 0 c-301 0 -315 -1 -334 -20z"/>
<path d="M1783 1248 l-183 -182 -103 102 c-88 86 -109 102 -136 102 -21 0 -41
-9 -56 -25 -47 -46 -37 -66 114 -218 114 -117 153 -147 187 -147 10 0 118 100
241 222 200 200 223 226 223 255 0 42 -30 73 -72 73 -28 0 -54 -22 -215 -182z"/>
<path d="M2430 1330 c-30 -30 -27 -83 6 -109 26 -21 34 -21 680 -21 457 0 660
3 677 11 25 11 47 47 47 75 0 8 -11 26 -25 39 l-24 25 -671 0 c-657 0 -670 0
-690 -20z"/>
<path d="M2430 1010 c-30 -30 -27 -83 6 -109 26 -21 34 -21 680 -21 464 0 660
3 678 11 51 23 55 103 7 128 -13 8 -235 11 -685 11 -653 0 -666 0 -686 -20z"/>
</g>
</svg>
