<?xml version="1.0" standalone="no"?>
<!DOCTYPE svg PUBLIC "-//W3C//DTD SVG 20010904//EN"
 "http://www.w3.org/TR/2001/REC-SVG-20010904/DTD/svg10.dtd">
<svg version="1.0" xmlns="http://www.w3.org/2000/svg"
 width="512.000000pt" height="512.000000pt" viewBox="0 0 512.000000 512.000000"
 preserveAspectRatio="xMidYMid meet">

<g transform="translate(0.000000,512.000000) scale(0.100000,-0.100000)"
fill="#000000" stroke="none">
<path d="M862 5009 c-99 -15 -240 -64 -326 -115 -147 -86 -295 -252 -366 -408
-92 -202 -105 -450 -36 -654 39 -114 83 -191 112 -198 38 -10 77 7 92 40 13
25 11 34 -21 104 -53 118 -68 177 -74 297 -17 359 205 666 554 767 78 23 79
23 813 23 l735 0 79 -23 c136 -39 229 -94 332 -197 81 -80 98 -103 142 -195
28 -58 58 -137 66 -177 33 -148 14 -334 -47 -467 -13 -28 -92 -167 -175 -309
-103 -175 -152 -267 -152 -287 0 -23 17 -49 76 -112 216 -235 340 -514 375
-843 26 -244 -28 -540 -136 -755 l-36 -71 -107 3 -107 3 -5 180 c-5 174 -6
182 -34 240 -103 209 -362 278 -554 148 -52 -36 -113 -107 -131 -155 l-10 -26
-81 41 c-76 39 -87 42 -163 42 -168 0 -294 -85 -362 -243 -18 -43 -20 -74 -23
-390 l-3 -342 -187 0 c-323 0 -371 16 -532 179 -204 204 -328 438 -392 735
-29 136 -31 407 -4 541 38 193 108 370 206 520 52 79 163 217 214 264 42 39
35 74 -40 203 -36 62 -75 121 -86 131 -27 23 -59 22 -92 -4 -39 -30 -34 -65
24 -163 27 -47 50 -88 50 -91 0 -4 -29 -41 -65 -82 -537 -627 -508 -1555 66
-2148 116 -120 192 -172 299 -207 56 -18 97 -21 301 -26 l236 -4 5 -113 c4
-93 10 -122 31 -169 68 -148 189 -227 347 -227 81 0 142 17 202 56 21 14 40
25 43 25 2 0 16 -21 29 -48 28 -54 105 -131 162 -160 183 -93 419 -11 512 178
26 53 27 63 30 238 l4 182 554 0 554 0 0 -150 c0 -147 1 -152 25 -175 31 -32
69 -32 100 0 l25 24 0 653 c0 615 2 655 19 693 78 167 305 182 399 25 l32 -54
0 -666 c0 -624 -2 -667 -19 -706 -33 -73 -126 -134 -205 -134 -14 0 -53 9 -86
21 -75 26 -105 20 -126 -25 -15 -30 -15 -35 0 -64 24 -46 107 -75 216 -76 75
-1 93 3 150 30 73 35 138 95 177 163 15 25 28 47 29 49 1 2 19 -8 41 -22 60
-40 121 -57 203 -57 171 -1 309 99 360 260 19 60 20 91 20 556 0 467 -1 496
-20 559 -34 109 -127 206 -235 243 -80 28 -196 24 -270 -10 -33 -16 -67 -35
-77 -44 -21 -19 -19 -20 -48 36 -31 62 -106 133 -174 165 -157 74 -359 25
-460 -113 -64 -88 -69 -108 -74 -308 l-4 -183 -354 0 c-215 0 -354 4 -354 9 0
6 16 48 34 95 88 216 129 496 108 717 -16 154 -35 248 -77 375 -62 186 -183
400 -304 536 -28 31 -51 59 -51 63 0 4 62 113 138 243 207 354 227 412 227
642 0 131 -4 167 -23 233 -94 327 -333 564 -654 649 -81 22 -97 22 -803 24
-404 1 -748 -2 -783 -7z m1534 -3125 c35 -21 56 -44 76 -83 l28 -53 0 -662 c0
-747 4 -707 -80 -778 -92 -79 -227 -71 -312 19 -60 62 -58 42 -58 758 0 723
-2 695 63 764 75 79 190 93 283 35z m-611 -158 c52 -31 82 -71 101 -133 18
-60 20 -939 3 -1008 -14 -54 -68 -119 -122 -146 -123 -63 -287 16 -317 152 -8
38 -10 194 -8 529 l3 475 28 47 c65 111 202 148 312 84z m3062 5 c50 -25 86
-67 107 -123 15 -38 16 -99 14 -538 l-3 -495 -27 -46 c-76 -130 -258 -151
-359 -42 -67 71 -64 47 -64 598 0 558 -3 534 72 609 67 66 173 82 260 37z
m-1087 -646 l0 -195 -555 0 -555 0 0 195 0 195 555 0 555 0 0 -195z"/>
<path d="M881 4454 c-128 -45 -219 -155 -241 -291 -10 -60 2 -149 27 -198 58
-112 271 -465 296 -488 34 -33 32 -33 161 13 169 60 260 74 471 74 215 1 311
-15 505 -83 58 -20 115 -35 127 -33 13 2 31 15 41 30 39 56 266 449 291 502
33 72 34 179 2 260 -29 76 -107 162 -179 197 l-57 28 -700 2 c-613 2 -706 0
-744 -13z m1427 -149 c95 -40 148 -150 118 -246 -11 -38 -222 -408 -246 -433
-5 -5 -41 2 -87 17 -171 56 -271 71 -493 71 -219 0 -310 -12 -486 -68 l-74
-24 -42 72 c-23 39 -77 131 -120 205 -43 73 -82 149 -86 170 -19 87 28 186
107 228 l44 23 664 0 c576 0 669 -2 701 -15z"/>
</g>
</svg>
