<?xml version="1.0" standalone="no"?>
<!DOCTYPE svg PUBLIC "-//W3C//DTD SVG 20010904//EN"
 "http://www.w3.org/TR/2001/REC-SVG-20010904/DTD/svg10.dtd">
<svg version="1.0" xmlns="http://www.w3.org/2000/svg"
 width="512.000000pt" height="512.000000pt" viewBox="0 0 512.000000 512.000000"
 preserveAspectRatio="xMidYMid meet">

<g transform="translate(0.000000,512.000000) scale(0.100000,-0.100000)"
fill="#000000" stroke="none">
<path d="M3878 5105 c-90 -15 -186 -45 -274 -85 -147 -66 -194 -107 -637 -549
-406 -405 -429 -429 -443 -479 -20 -66 -12 -116 27 -177 33 -52 109 -95 169
-95 94 0 89 -4 535 439 394 392 425 420 500 459 111 56 203 76 329 69 62 -3
126 -13 166 -26 191 -61 352 -223 413 -416 18 -57 22 -93 22 -195 0 -139 -10
-182 -73 -305 -32 -64 -94 -129 -771 -806 -714 -714 -738 -737 -817 -777 -102
-52 -184 -72 -299 -72 -155 0 -297 52 -415 152 -85 72 -123 91 -186 92 -150 2
-257 -159 -197 -296 41 -90 255 -248 420 -308 147 -53 212 -64 383 -64 170 0
260 17 403 74 186 76 167 60 1007 900 854 854 830 826 906 1030 56 148 68 217
68 390 -1 136 -4 168 -27 255 -50 189 -145 354 -282 491 -242 244 -589 356
-927 299z"/>
<path d="M2098 3325 c-159 -27 -337 -102 -458 -194 -36 -27 -371 -357 -746
-733 -573 -574 -688 -695 -728 -760 -120 -195 -175 -408 -163 -627 21 -388
243 -724 592 -897 249 -123 537 -147 795 -64 95 31 236 103 310 159 36 27 223
208 416 403 336 338 352 355 363 403 23 100 -20 194 -110 239 -57 28 -101 32
-164 15 -33 -9 -99 -70 -400 -368 -384 -381 -402 -395 -555 -447 -83 -28 -281
-27 -375 3 -193 61 -355 222 -416 413 -27 82 -36 238 -20 322 7 35 33 106 58
158 l45 95 676 676 c655 654 680 677 758 717 101 51 184 72 295 72 164 0 291
-48 434 -165 93 -75 146 -93 216 -75 69 18 114 53 143 111 49 98 32 175 -58
265 -224 224 -582 334 -908 279z"/>
</g>
</svg>
