<?xml version="1.0" standalone="no"?>
<!DOCTYPE svg PUBLIC "-//W3C//DTD SVG 20010904//EN"
 "http://www.w3.org/TR/2001/REC-SVG-20010904/DTD/svg10.dtd">
<svg version="1.0" xmlns="http://www.w3.org/2000/svg"
 width="512.000000pt" height="512.000000pt" viewBox="0 0 512.000000 512.000000"
 preserveAspectRatio="xMidYMid meet">

<g transform="translate(0.000000,512.000000) scale(0.100000,-0.100000)"
fill="#000000" stroke="none">
<path d="M2325 4589 c-241 -25 -467 -92 -690 -204 -313 -157 -550 -366 -746
-659 -425 -631 -445 -1459 -54 -2137 l44 -76 -170 -458 c-128 -347 -168 -466
-164 -487 8 -35 59 -78 92 -78 14 0 222 83 462 185 l436 185 155 -78 c454
-230 961 -287 1447 -163 691 177 1240 733 1409 1426 72 299 72 662 0 960 -150
612 -565 1120 -1141 1396 -330 158 -721 226 -1080 188z m385 -200 c826 -84
1496 -697 1662 -1520 20 -99 23 -143 23 -344 0 -181 -4 -249 -18 -320 -90
-449 -315 -819 -660 -1086 -585 -453 -1401 -492 -2051 -100 -51 31 -96 51
-113 51 -17 0 -187 -67 -379 -148 -192 -82 -350 -148 -352 -147 -1 1 58 167
133 368 74 201 135 377 135 389 0 13 -21 57 -47 98 -384 615 -382 1389 4 1975
363 551 1002 852 1663 784z"/>
<path d="M1855 3773 c-116 -47 -264 -174 -340 -293 -84 -129 -108 -247 -86
-412 58 -435 346 -901 766 -1241 327 -265 691 -417 999 -420 84 0 113 4 173
25 170 60 352 232 420 398 39 94 26 197 -32 254 -17 17 -80 61 -140 97 -61 36
-159 96 -219 132 -170 104 -242 117 -335 60 -41 -26 -74 -61 -183 -193 l-37
-45 -38 14 c-93 33 -279 175 -404 309 -126 135 -239 301 -239 352 0 11 31 44
73 79 97 79 173 162 187 207 25 75 -6 154 -158 399 -150 241 -154 247 -201
272 -53 28 -145 31 -206 6z m153 -248 c19 -33 67 -112 107 -175 40 -63 82
-134 93 -157 l22 -42 -67 -58 c-201 -174 -224 -208 -203 -306 27 -131 139
-304 309 -480 221 -228 438 -367 578 -368 72 -1 109 24 208 143 118 141 106
134 179 95 33 -19 124 -73 201 -120 77 -48 148 -92 159 -98 27 -16 15 -59 -39
-134 -85 -120 -215 -209 -320 -221 -69 -8 -232 19 -345 56 -597 198 -1156 818
-1256 1390 -31 180 -5 275 110 398 73 78 170 144 205 140 19 -2 34 -18 59 -63z"/>
</g>
</svg>
